<svg width="32" height="32" viewBox="0 0 32 32" fill="none" xmlns="http://www.w3.org/2000/svg">
    <path d="M27 27V5a1 1 0 0 0-1-1H8a1 1 0 0 0-1 1v22a1 1 0 0 0 1 1h18a1 1 0 0 0 1-1z" fill="#fff" stroke="#000" stroke-width="1.5" stroke-linecap="round" stroke-linejoin="round"/>
    <path d="M17 18a4 4 0 1 0 0-8 4 4 0 0 0 0 8z" stroke="#FF6691" stroke-width="1.5" stroke-linecap="round" stroke-linejoin="round"/>
    <path d="M4 13.5h3M4 8.5h3M4 18.5h3M4 23.5h3" stroke="#000" stroke-width="1.5" stroke-linecap="round" stroke-linejoin="round"/>
    <path d="M11 21a7.5 7.5 0 0 1 12 0" stroke="#FF6691" stroke-width="1.5" stroke-linecap="round" stroke-linejoin="round"/>
</svg>
