<svg width="24" height="24" viewBox="0 0 24 24" fill="none" xmlns="http://www.w3.org/2000/svg">
    <path d="M17.5 22a1.5 1.5 0 1 0 0-3 1.5 1.5 0 0 0 0 3z" stroke="#000" stroke-width="1.5" stroke-linecap="round" stroke-linejoin="round"/>
    <path d="M6.472 14h12.705c.38 0 .746-.148 1.037-.418.291-.27.488-.645.556-1.06L22 5H5" fill="#fff"/>
    <path d="M6.472 14h12.705c.38 0 .746-.148 1.037-.418.291-.27.488-.645.556-1.06L22 5H5" stroke="#000" stroke-width="1.5" stroke-linecap="round" stroke-linejoin="round"/>
    <path d="M21.5 9h-16L5 5h17l-.5 4z" fill="#FF7C97"/>
    <path d="M19 17H6.805L4.315 2.616a.759.759 0 0 0-.246-.442A.694.694 0 0 0 3.612 2H2M8.5 22a1.5 1.5 0 1 0 0-3 1.5 1.5 0 0 0 0 3z" stroke="#000" stroke-width="1.5" stroke-linecap="round" stroke-linejoin="round"/>
    <path d="M6.472 14h12.705c.38 0 .746-.148 1.037-.418.291-.27.488-.645.556-1.06L22 5H5" stroke="#000" stroke-width="1.5" stroke-linecap="round" stroke-linejoin="round"/>
    <path d="M5.5 9H21" stroke="#000" stroke-width="1.5"/>
</svg>
