<svg width="24" height="24" viewBox="0 0 24 24" fill="none" xmlns="http://www.w3.org/2000/svg">
    <path d="M18.698 2c.374 0 .742.132 1.003.392.26.26.392.628.392 1.003v1.953h1.395a.58.58 0 0 1 .558.558v4.466h1.448a.578.578 0 0 1 .506.558v5.581a.58.58 0 0 1-.558.558h-6.977a3.354 3.354 0 0 1-3.348-3.348 3.354 3.354 0 0 1 3.348-3.35h4.465V6.466H2.512c-.404 0-.788-.106-1.116-.297v7.483a.58.58 0 0 1-.558.566.58.58 0 0 1-.558-.566V4.162A2.242 2.242 0 0 1 2.512 2h16.186zm0 1.116H2.512c-.628 0-1.116.488-1.116 1.116 0 .628.488 1.116 1.116 1.116h16.465V3.395c0-.131-.038-.186-.07-.218-.032-.033-.079-.061-.21-.061zm4.186 8.372h-6.419a2.215 2.215 0 0 0-2.232 2.232c0 1.247.986 2.233 2.232 2.233h6.419v-4.465zm-6.698 1.395c.456 0 .837.382.837.837a.846.846 0 0 1-.837.838.846.846 0 0 1-.837-.838c0-.455.381-.837.837-.837zm-15.34 0a.58.58 0 0 1 .55.567v.27a.58.58 0 0 1-.558.567.58.58 0 0 1-.558-.566v-.27a.58.58 0 0 1 .567-.568zm3.34 1.396a4.195 4.195 0 0 1 4.187 4.186 4.195 4.195 0 0 1-4.186 4.186A4.195 4.195 0 0 1 0 18.465a4.195 4.195 0 0 1 4.186-4.186zm0 1.116a3.061 3.061 0 0 0-3.07 3.07 3.061 3.061 0 0 0 3.07 3.07 3.061 3.061 0 0 0 3.07-3.07 3.061 3.061 0 0 0-3.07-3.07zm1.457 1.387c.212.02.404.172.474.373.069.2.011.44-.142.586L4.02 19.694a.583.583 0 0 1-.837-.06l-.837-1.117a.58.58 0 0 1 .089-.807.581.581 0 0 1 .8.136l.454.601 1.5-1.5a.566.566 0 0 1 .453-.165zm15.907 1.395c.274.03.503.29.497.567v2.79a.58.58 0 0 1-.558.559H9.21a.58.58 0 0 1-.566-.559.58.58 0 0 1 .566-.558h11.72v-2.232a.583.583 0 0 1 .62-.567z" fill="#000"/>
</svg>
