<svg width="18" height="18" viewBox="0 0 18 18" fill="none" xmlns="http://www.w3.org/2000/svg">
    <path d="M3.83 14.17c-.648-.646-.219-2.005-.548-2.801C2.94 10.544 1.687 9.879 1.687 9c0-.88 1.254-1.543 1.595-2.369.33-.796-.1-2.155.547-2.802.647-.647 2.006-.218 2.802-.547C7.457 2.94 8.121 1.687 9 1.687c.88 0 1.543 1.254 2.369 1.595.796.33 2.155-.1 2.802.547.647.647.218 2.006.547 2.802.341.826 1.595 1.49 1.595 2.369 0 .88-1.253 1.543-1.595 2.369-.33.796.1 2.155-.547 2.802-.647.647-2.006.218-2.802.547-.825.341-1.49 1.595-2.369 1.595-.88 0-1.543-1.253-2.369-1.595-.796-.33-2.155.1-2.802-.547z" fill="#37C771" stroke="#37C771" stroke-linecap="round" stroke-linejoin="round"/>
    <path d="M12.094 7.313 7.969 11.25 5.906 9.281" stroke="#fff" stroke-linecap="round" stroke-linejoin="round"/>
</svg>
