<svg width="21" height="14" viewBox="0 0 21 14" fill="none" xmlns="http://www.w3.org/2000/svg">
    <path d="m2.33 6.087.492-1.965a.297.297 0 0 1-.235-.29v-.317c0-.688.56-1.248 1.25-1.248h2.24v-.653c0-.339.276-.614.615-.614h11.424c.339 0 .615.275.615.614V7a.297.297 0 0 1-.595 0V1.614a.02.02 0 0 0-.02-.02H6.692a.02.02 0 0 0-.02.02V7a.297.297 0 0 1-.595 0v-.337h-3.51c.001 0 0 0 0 0a.973.973 0 0 0-.925.674h.925c.164 0 .297.133.297.297v.633c0 .514-.418.931-.932.931h-.337v1.307h.778a1.887 1.887 0 0 1 1.78-1.267c.824 0 1.526.53 1.781 1.267h.143V8.267a.297.297 0 0 1 .595 0v2.238h6.173a1.887 1.887 0 0 1 1.78-1.267c.824 0 1.525.53 1.78 1.267h1.71a.02.02 0 0 0 .02-.02v-.653h-1.288a.297.297 0 1 1 0-.594h2.855a.297.297 0 1 1 0 .594h-.971v.653a.615.615 0 0 1-.615.614h-1.607v.02a1.885 1.885 0 0 1-3.768 0v-.02H6.038v.02a1.885 1.885 0 0 1-3.768 0v-.02h-.971A.297.297 0 0 1 1 10.802V7.634c0-.783.578-1.432 1.33-1.547zm3.747-3.226h-2.24a.655.655 0 0 0-.655.654v.02h2.895V2.86zm0 3.208V4.13H3.434l-.486 1.94h3.13zm8.548 6.337c.711 0 1.29-.577 1.29-1.287a1.29 1.29 0 0 0-2.579 0c0 .71.578 1.287 1.29 1.287zm-10.472 0c.711 0 1.29-.577 1.29-1.287a1.29 1.29 0 0 0-2.579 0c0 .71.579 1.287 1.29 1.287zM1.595 8.604h.337a.337.337 0 0 0 .337-.337v-.336h-.674v.673z" fill="#505050"/>
    <path d="M2.568 6.663h3.51V7a.297.297 0 0 0 .594 0V1.614c0-.011.01-.02.02-.02h11.424c.01 0 .02.009.02.02V7a.297.297 0 0 0 .595 0V1.614A.615.615 0 0 0 18.116 1H6.692a.615.615 0 0 0-.615.614v.653h-2.24c-.69 0-1.25.56-1.25 1.248v.317c0 .143.1.262.235.29L2.33 6.087A1.568 1.568 0 0 0 1 7.634v3.168c0 .164.133.297.298.297h.972v.02a1.885 1.885 0 0 0 3.768 0v-.02h6.704v.02a1.885 1.885 0 0 0 3.767 0v-.02h1.607c.339 0 .615-.275.615-.614v-.653h.971a.297.297 0 1 0 0-.594h-2.855a.297.297 0 1 0 0 .594h1.289v.653a.02.02 0 0 1-.02.02h-1.71a1.887 1.887 0 0 0-1.78-1.267c-.824 0-1.526.53-1.781 1.267H6.672V8.267a.297.297 0 0 0-.595 0v2.238h-.143a1.887 1.887 0 0 0-1.78-1.267c-.824 0-1.526.53-1.781 1.267h-.778V9.198h.337a.932.932 0 0 0 .932-.93v-.634a.297.297 0 0 0-.297-.297h-.925a.973.973 0 0 1 .924-.674h.002zm0 0zm3.51-3.802H3.835a.655.655 0 0 0-.654.654v.02h2.895V2.86zm0 3.208V4.13H3.433l-.486 1.94h3.13zm8.547 6.337c.711 0 1.29-.577 1.29-1.287a1.29 1.29 0 0 0-2.579 0c0 .71.578 1.287 1.29 1.287zm-10.472 0c.711 0 1.29-.577 1.29-1.287a1.29 1.29 0 0 0-2.579 0c0 .71.579 1.287 1.29 1.287zM1.595 8.604h.337a.337.337 0 0 0 .337-.337v-.336h-.674v.673z" stroke="#505050" stroke-width=".2"/>
    <path d="M14.625 10.504a.615.615 0 1 1 0 1.23.615.615 0 0 1 0-1.23zM4.153 10.504a.615.615 0 1 1 0 1.23.615.615 0 0 1 0-1.23zM7.644 9.238h4.443a.297.297 0 1 1 0 .594H7.644a.297.297 0 1 1 0-.594zM15.26 7.973h3.808a.297.297 0 1 1 0 .594H15.26a.297.297 0 1 1 0-.594z" fill="#505050" stroke="#505050" stroke-width=".2"/>
</svg>
