<svg width="32" height="32" viewBox="0 0 32 32" fill="none" xmlns="http://www.w3.org/2000/svg">
    <path d="M17.58 10.604 13.17 8.84l-1.741.696 4.41 1.765 1.742-.697zM10.327 9.976l-1.57.628 4.412 1.765 1.57-.628-4.412-1.765zM8.584 15.716l4.456 1.782v-4.904L8.584 10.81v4.905zM16.012 12.893l-.184-.11-.183.256-.184-.11-.183.256-.183-.11-.184.257v-1.384l-1.613.646v4.905l4.456-1.782v-4.905l-1.742.696v1.385z" fill="#FE8821"/>
    <path d="m27.532 24.573-6.981-5.982a9.116 9.116 0 0 0 1.787-5.422 9.169 9.169 0 1 0-18.338 0 9.17 9.17 0 0 0 9.169 9.17c2.031 0 3.902-.67 5.422-1.788l5.983 6.98c.51.595 1.371.628 1.924.075l1.107-1.108a1.292 1.292 0 0 0-.074-1.925zm-14.363-4.069c-4.044 0-7.335-3.29-7.335-7.335 0-4.044 3.291-7.335 7.335-7.335 4.045 0 7.336 3.291 7.336 7.335 0 4.045-3.291 7.335-7.335 7.335z" fill="#FF3278"/>
</svg>
