<svg width="35" height="26" viewBox="0 0 35 26" fill="none" xmlns="http://www.w3.org/2000/svg">
    <path d="m32.037 14.63-.727-2.947a.444.444 0 0 0 .348-.435v-.476c0-1.031-.83-1.87-1.848-1.87h-3.313V7.92A.916.916 0 0 0 25.59 7H8.7a.916.916 0 0 0-.909.92V16c0 .246.197.446.44.446s.44-.2.44-.446V7.92a.03.03 0 0 1 .03-.029h16.887a.03.03 0 0 1 .029.03V16c0 .245.197.445.44.445.242 0 .44-.2.44-.446v-.505h5.19c.638 0 1.18.425 1.366 1.01h-1.367c-.243 0-.44.2-.44.446v.95c0 .77.618 1.396 1.378 1.396h.498v1.96h-1.15c-.377-1.105-1.414-1.9-2.632-1.9a2.793 2.793 0 0 0-2.632 1.9h-.212v-3.356a.443.443 0 0 0-.44-.445c-.242 0-.44.199-.44.445v3.356h-9.123c-.378-1.105-1.415-1.9-2.633-1.9a2.793 2.793 0 0 0-2.632 1.9H8.701a.03.03 0 0 1-.03-.03v-.98h1.907c.242 0 .44-.199.44-.445a.443.443 0 0 0-.44-.446H6.356c-.243 0-.44.2-.44.446s.197.445.44.445h1.436v.98c0 .508.408.921.91.921h2.375v.03c0 1.556 1.249 2.822 2.784 2.822 1.536 0 2.785-1.266 2.785-2.822v-.03h9.91v.03c0 1.556 1.25 2.822 2.785 2.822 1.536 0 2.785-1.266 2.785-2.822v-.03h1.437c.243 0 .44-.199.44-.445v-4.752a2.34 2.34 0 0 0-1.966-2.32zm-5.54-4.838h3.314c.533 0 .967.44.967.98v.03h-4.28v-1.01zm0 4.812v-2.91h3.908l.719 2.91h-4.627zm-12.636 9.505c-1.05 0-1.905-.866-1.905-1.93 0-1.065.854-1.931 1.905-1.931 1.051 0 1.906.866 1.906 1.93 0 1.065-.855 1.931-1.906 1.931zm15.48 0c-1.05 0-1.905-.866-1.905-1.93 0-1.065.855-1.931 1.905-1.931 1.051 0 1.906.866 1.906 1.93 0 1.065-.855 1.931-1.906 1.931zm3.782-5.703h-.498a.502.502 0 0 1-.498-.505v-.505h.996v1.01z" fill="#505050"/>
    <path d="M31.685 15.495h-5.188V16a.443.443 0 0 1-.44.446c-.242 0-.44-.2-.44-.446V7.92a.03.03 0 0 0-.028-.029H8.7a.03.03 0 0 0-.03.03V16a.443.443 0 0 1-.439.445c-.243 0-.44-.2-.44-.446V7.92c0-.507.408-.92.91-.92h16.887c.5 0 .909.413.909.92v.981h3.313c1.018 0 1.846.84 1.846 1.871v.476c0 .214-.149.393-.348.435l.728 2.948a2.34 2.34 0 0 1 1.966 2.32v4.752a.443.443 0 0 1-.44.445h-1.437v.03c0 1.556-1.249 2.822-2.785 2.822-1.535 0-2.785-1.266-2.785-2.822v-.03h-9.91v.03c0 1.556-1.249 2.822-2.785 2.822-1.535 0-2.785-1.266-2.785-2.822v-.03H8.702a.916.916 0 0 1-.909-.92v-.98H6.356c-.243 0-.44-.2-.44-.446s.197-.446.44-.446h4.222c.242 0 .44.2.44.446a.443.443 0 0 1-.44.445H8.672v.98c0 .017.013.03.03.03h2.527a2.793 2.793 0 0 1 2.632-1.9c1.218 0 2.255.795 2.633 1.9h9.124v-3.356c0-.246.197-.445.44-.445.242 0 .44.199.44.445v3.357h.211a2.793 2.793 0 0 1 2.632-1.901c1.218 0 2.255.796 2.633 1.9h1.15v-1.96h-.499c-.76 0-1.378-.626-1.378-1.396v-.95c0-.247.197-.446.44-.446h1.367a1.441 1.441 0 0 0-1.366-1.01h-.003zm0 0zm-5.188-5.703h3.314c.533 0 .967.44.967.98v.03h-4.28v-1.01zm0 4.812v-2.91h3.908l.719 2.91h-4.627zm-12.636 9.505c-1.05 0-1.905-.866-1.905-1.93 0-1.065.854-1.931 1.905-1.931 1.051 0 1.906.866 1.906 1.93 0 1.065-.855 1.931-1.906 1.931zm15.48 0c-1.05 0-1.905-.866-1.905-1.93 0-1.065.855-1.931 1.905-1.931 1.051 0 1.906.866 1.906 1.93 0 1.065-.855 1.931-1.906 1.931zm3.782-5.703h-.498a.502.502 0 0 1-.498-.505v-.505h.996v1.01z" stroke="#505050" stroke-width=".2"/>
    <path d="M13.862 21.256a.916.916 0 0 0-.909.92c0 .508.408.922.909.922a.916.916 0 0 0 .909-.921.916.916 0 0 0-.909-.921zM29.34 21.256a.916.916 0 0 0-.908.92c0 .508.407.922.909.922a.916.916 0 0 0 .908-.921.916.916 0 0 0-.909-.921zM24.179 19.357h-6.567c-.243 0-.44.2-.44.446s.197.445.44.445h6.567c.243 0 .44-.199.44-.445a.443.443 0 0 0-.44-.446zM12.924 17.459H7.295c-.243 0-.44.2-.44.445 0 .247.197.446.44.446h5.63c.242 0 .44-.2.44-.446a.443.443 0 0 0-.44-.445z" fill="#505050" stroke="#505050" stroke-width=".2"/>
    <path d="M8.377 14.875c3.47 0 6.282-2.854 6.282-6.375 0-3.52-2.812-6.375-6.282-6.375S2.094 4.979 2.094 8.5c0 3.52 2.813 6.375 6.283 6.375z" fill="#fff" stroke="#F33" stroke-linecap="round" stroke-linejoin="round"/>
    <path d="M8.377 5.313V9.03" stroke="#F33" stroke-linecap="round" stroke-linejoin="round"/>
    <path d="M8.377 11.953c.289 0 .523-.238.523-.531a.527.527 0 0 0-.523-.531.527.527 0 0 0-.524.53c0 .294.234.532.524.532z" fill="#F33"/>
</svg>
