<svg width="18" height="18" viewBox="0 0 18 18" fill="none" xmlns="http://www.w3.org/2000/svg">
    <path fill="#fff" d="M12 9h3v4.5h-3zM2.715 9h2.793v4.5H2.715z"/>
    <path d="M15.44 8.679h-2.182a1.1 1.1 0 0 0-.771.313c-.205.201-.32.474-.32.758v2.679c0 .284.115.556.32.757.204.201.482.314.77.314h1.092a1.1 1.1 0 0 0 .771-.314c.205-.2.32-.473.32-.757v-3.75zm0 0a6.33 6.33 0 0 0-.503-2.472 6.423 6.423 0 0 0-1.432-2.091 6.556 6.556 0 0 0-2.14-1.39 6.65 6.65 0 0 0-2.52-.476 6.65 6.65 0 0 0-2.52.475c-.8.32-1.527.793-2.14 1.39a6.423 6.423 0 0 0-1.432 2.092A6.33 6.33 0 0 0 2.25 8.68v3.75c0 .284.115.556.32.757.204.201.482.314.77.314h1.092c.289 0 .567-.113.771-.314.205-.2.32-.473.32-.757V9.75c0-.284-.115-.557-.32-.758a1.101 1.101 0 0 0-.771-.313H2.25" stroke="#000" stroke-width="1.5" stroke-linecap="round" stroke-linejoin="round"/>
    <path d="M15.44 12v1.607c0 .569-.235 1.114-.651 1.515a2.262 2.262 0 0 1-1.57.628H9.232" stroke="#000" stroke-width="1.5" stroke-linecap="round" stroke-linejoin="round"/>
</svg>
