<svg width="91" height="24" viewBox="0 0 91 24" fill="none" xmlns="http://www.w3.org/2000/svg">
    <path d="M18.423 16.007a4.241 4.241 0 0 1-1.83.351c-1.328-.024-2.353-.6-3.05-1.693-.207-.323-.426-.361-.74-.326-2.061.224-3.681 1.298-5.169 2.627-.32.286-.02.355.157.456 1.687.962 3.981.772 5.57-.461.102-.08.197-.17.3-.248.456-.36.944-.36 1.255 0 .312.358.259.857-.171 1.242-1.484 1.31-3.23 1.817-5.204 1.657-2.527-.205-4.67-1.788-5.388-4.012a4.146 4.146 0 0 1-.216-1.48c.025-.563.245-.821.744-.854.453-.03.805.26.872.765.05.366.037.745.174 1.094.072.19.17.373.25.558.126.288.252.345.518.093a13.107 13.107 0 0 1 3.076-2.14 7.795 7.795 0 0 1 2.84-.849c.37-.033.522-.133.564-.546.188-1.871 1.611-3.164 3.52-3.271.118-.007.287.076.344-.086.058-.161-.106-.223-.187-.316a8.509 8.509 0 0 0-3.242-2.354c-.387-.16-.546-.158-.691.313-.684 2.21-2.761 3.567-5.146 3.418a4.972 4.972 0 0 1-2.987-1.222 4.882 4.882 0 0 1-1.585-2.788C2.499 3.25 4.19.69 6.842.12c2.735-.588 5.378 1.043 6 3.738.09.395.278.537.627.655a10.154 10.154 0 0 1 5.222 3.965c.174.249.327.51.21.825-.085.226.047.33.194.462 1.5 1.348 1.802 3.063.848 4.826-.085.158-.158.26.03.409.304.24.28.58.213.922-.894 4.62-5.051 7.95-9.807 8.075-4.158.114-9.427-2.66-10.292-8.894-.338-2.451.32-4.755 1.744-6.814.391-.566.857-.704 1.271-.42.414.285.465.826.09 1.376a8.347 8.347 0 0 0-.879 7.846 8.43 8.43 0 0 0 2.39 3.308 8.548 8.548 0 0 0 3.678 1.815c4.274.972 8.843-1.739 10.018-5.945.016-.086.024-.174.024-.262zM11.324 5.019c.008-1.928-1.456-3.395-3.388-3.405a3.42 3.42 0 0 0-2.367 1.003 3.35 3.35 0 0 0-.979 2.356 3.35 3.35 0 0 0 .969 2.361A3.42 3.42 0 0 0 7.92 8.348a3.372 3.372 0 0 0 2.41-.954 3.304 3.304 0 0 0 .993-2.375zm3.251 7.602a2.092 2.092 0 0 0 .61 1.533 2.135 2.135 0 0 0 1.536.633c1.155 0 2.134-.987 2.134-2.149 0-1.092-1.017-2.078-2.143-2.08a2.145 2.145 0 0 0-1.493.6c-.4.386-.63.91-.644 1.463zM25.156 19.05V8.507c0-.904.517-1.427 1.396-1.427.878 0 1.395.523 1.395 1.427v4.047h5.99V8.508c0-.904.516-1.427 1.395-1.427.88 0 1.396.523 1.396 1.427V19.05c0 .895-.517 1.419-1.396 1.419-.879 0-1.395-.524-1.395-1.419v-4.245h-5.995v4.245c0 .895-.517 1.419-1.396 1.419-.879 0-1.39-.524-1.39-1.419zM38.342 15.5c0-3.117 1.854-5.094 4.778-5.094 2.804 0 4.685 1.878 4.685 4.508 0 .732-.423 1.147-1.17 1.147h-5.646v.124c0 1.436.888 2.375 2.251 2.375.987 0 1.633-.324 2.36-1.165.287-.288.527-.388.877-.388.581 0 1.052.36 1.052.967-.007.225-.07.445-.184.64-.656 1.193-2.187 1.897-4.096 1.897-3.09-.007-4.907-1.877-4.907-5.012zm6.872-1.057c-.056-1.265-.888-2.086-2.066-2.086-1.179 0-2.039.848-2.131 2.086h4.197zM48.807 17.515c0-1.761 1.383-2.783 3.855-2.927l2.49-.144v-.642c0-.903-.645-1.427-1.66-1.427-.82 0-1.32.262-1.918 1.02-.13.156-.293.28-.478.365a1.384 1.384 0 0 1-.592.124c-.655 0-1.125-.416-1.125-1.012 0-.207.047-.41.138-.597.46-1.156 2.047-1.863 4.095-1.863 2.537 0 4.186 1.282 4.186 3.23v5.52c0 .87-.544 1.328-1.309 1.328-.73 0-1.236-.398-1.291-1.175v-.497h-.056c-.553 1.03-1.79 1.636-3.025 1.636-1.88-.001-3.31-1.195-3.31-2.94zm6.341-.768v-.704l-2.083.124c-1.006.072-1.578.514-1.578 1.201 0 .723.608 1.174 1.513 1.174 1.184.003 2.152-.746 2.152-1.795h-.004zM59.6 19.114V8.446c0-.904.563-1.383 1.347-1.383.783 0 1.347.479 1.347 1.383v10.668c0 .903-.553 1.374-1.347 1.374-.794 0-1.347-.471-1.347-1.374zM63.75 15.447c0-3.135 1.937-5.04 4.897-5.04s4.899 1.896 4.899 5.04c0 3.189-1.903 5.058-4.899 5.058s-4.897-1.878-4.897-5.058zm7.056.009c0-1.924-.849-3.035-2.156-3.035-1.308 0-2.167 1.11-2.167 3.035 0 1.924.839 3.036 2.167 3.036 1.328 0 2.156-1.094 2.156-3.036zM75.655 19.114V12.6h-.516c-.563 0-.987-.353-.987-.975s.424-.968.987-.968h.516v-.731c0-1.914.96-2.764 2.824-2.781 1.43 0 2.03.442 2.03 1.065 0 .373-.185.587-.545.696-.17.041-.342.065-.516.072-.83.027-1.162.351-1.162 1.066v.613h1.134c.563 0 .987.353.987.968s-.424.975-.987.975h-1.07v6.513c0 .913-.554 1.374-1.346 1.374-.793 0-1.349-.461-1.349-1.374zM81.514 22.646c0-.533.38-.87.988-.87.184 0 .286.01.471.01.47 0 .977-.2 1.3-.878l.138-.342-3.154-8.148a2.373 2.373 0 0 1-.157-.777c0-.713.6-1.229 1.395-1.229.71 0 1.08.298 1.301 1.066l2.149 6.708h.047l2.148-6.72c.221-.732.61-1.049 1.3-1.049.775 0 1.31.497 1.31 1.193a2.51 2.51 0 0 1-.147.776l-3.035 8.074c-.922 2.502-2.066 3.424-4.233 3.424-1.184 0-1.82-.443-1.82-1.238z" fill="#FF6691"/>
</svg>
