<svg width="24" height="24" viewBox="0 0 24 24" fill="none" xmlns="http://www.w3.org/2000/svg">
    <path fill="#FF7C97" d="M16 12h4v6h-4zM3.62 12h3.724v6H3.62z"/>
    <path d="M20.586 11.571h-2.909c-.386 0-.755.15-1.028.419a1.416 1.416 0 0 0-.426 1.01v3.571c0 .38.153.743.426 1.01.273.268.642.419 1.028.419h1.455c.385 0 .755-.15 1.028-.418s.426-.632.426-1.01v-5zm0 0a8.44 8.44 0 0 0-.67-3.295 8.565 8.565 0 0 0-1.91-2.788 8.74 8.74 0 0 0-2.853-1.854A8.865 8.865 0 0 0 11.793 3a8.866 8.866 0 0 0-3.36.634A8.741 8.741 0 0 0 5.58 5.488a8.564 8.564 0 0 0-1.91 2.788A8.44 8.44 0 0 0 3 11.571v5c0 .38.153.743.426 1.01.273.268.643.419 1.028.419H5.91c.386 0 .756-.15 1.028-.418.273-.268.426-.632.426-1.01V13c0-.379-.153-.742-.426-1.01a1.468 1.468 0 0 0-1.028-.419H3" stroke="#000" stroke-width="1.5" stroke-linecap="round" stroke-linejoin="round"/>
    <path d="M20.586 16v2.143c0 .758-.312 1.484-.867 2.02a3.016 3.016 0 0 1-2.093.837H12.31" stroke="#000" stroke-width="1.5" stroke-linecap="round" stroke-linejoin="round"/>
</svg>
