<svg width="24" height="25" viewBox="0 0 24 25" fill="none" xmlns="http://www.w3.org/2000/svg">
    <path d="m20.732 10.964-8.182-7.08A.842.842 0 0 0 12 3.68c-.204 0-.4.072-.551.202l-8.181 7.081a.782.782 0 0 0-.198.261.747.747 0 0 0-.07.315v9.002a.76.76 0 0 0 .24.55.84.84 0 0 0 .578.229h16.364a.84.84 0 0 0 .578-.228.76.76 0 0 0 .24-.551V11.54a.747.747 0 0 0-.07-.315.784.784 0 0 0-.198-.26z" fill="#fff" stroke="#000" stroke-width="1.5" stroke-linecap="round" stroke-linejoin="round"/>
    <path d="m20.732 10.964-8.182-7.08A.842.842 0 0 0 12 3.68c-.204 0-.4.072-.551.202l-8.181 7.081a.782.782 0 0 0-.198.261.747.747 0 0 0-.07.315v9.002a.76.76 0 0 0 .24.55.84.84 0 0 0 .578.229h16.364a.84.84 0 0 0 .578-.229.76.76 0 0 0 .24-.55V11.54a.747.747 0 0 0-.07-.315.784.784 0 0 0-.198-.26z" stroke="#9898B1" stroke-width="1.5" stroke-linecap="round" stroke-linejoin="round"/>
    <path d="M8 15.44c1.333 1.479 4.8 3.55 8 0" stroke="#9898B1" stroke-width="1.5" stroke-linecap="round"/>
</svg>
