<svg width="24" height="24" viewBox="0 0 24 24" fill="none" xmlns="http://www.w3.org/2000/svg">
    <path fill="#fff" d="M2.978 8.018h17.603v4.012H2.978zM19.603 12.532H4.445l.489 5.517 2.445 3.009c2.119.167 6.552.501 7.334.501.783 0 2.608-1.337 3.423-2.006l1.467-7.021z"/>
    <path d="m20.407 12.477-.786 6.164A3.853 3.853 0 0 1 15.805 22H8.218a3.856 3.856 0 0 1-3.813-3.347l-.81-6.176A2.815 2.815 0 0 1 2 9.95a2.823 2.823 0 0 1 2.82-2.82h1.617l2.852-4.755a.769.769 0 1 1 1.319.792L8.229 7.129h7.54L13.39 3.166a.77.77 0 0 1 1.32-.792l2.851 4.755h1.619A2.823 2.823 0 0 1 22 9.949c0 1.114-.653 2.07-1.593 2.528zm-1.588.293H5.185l.746 5.684a2.314 2.314 0 0 0 2.287 2.009h7.587a2.311 2.311 0 0 0 2.288-2.016l.726-5.677zm1.643-2.82c0-.707-.576-1.282-1.282-1.282H4.82c-.706 0-1.282.575-1.282 1.282 0 .707.576 1.282 1.282 1.282H19.18c.706 0 1.282-.575 1.282-1.282z" fill="#000"/>
    <path d="M10.719 18.155v-3.077a.77.77 0 0 0-1.539 0v3.077a.77.77 0 0 0 1.539 0zM13.283 15.078a.77.77 0 0 1 1.538 0v3.077a.77.77 0 0 1-1.538 0v-3.077z" fill="#FF95AA"/>
</svg>
