<svg width="16" height="16" viewBox="0 0 16 16" fill="none" xmlns="http://www.w3.org/2000/svg">
    <path fill-rule="evenodd" clip-rule="evenodd" d="M6.765 2.098a.333.333 0 0 1 .471 0l2 2a.333.333 0 1 1-.471.471l-2-2a.333.333 0 0 1 0-.471z" fill="#F33"/>
    <path fill-rule="evenodd" clip-rule="evenodd" d="M9.236 2.098a.333.333 0 0 1 0 .471l-2 2a.333.333 0 1 1-.471-.471l2-2a.333.333 0 0 1 .471 0zM7.667 10.546a1.166 1.166 0 0 1-1.267.363l-2.733-.911v2.501l4 1.508v-3.461zM8.334 14.007l4-1.508V9.998l-2.733.91a1.167 1.167 0 0 1-1.267-.362v3.461zM7.891 5.018a.333.333 0 0 1 .218 0l4.334 1.5a.333.333 0 1 1-.218.63L8 5.686 3.776 7.148a.333.333 0 0 1-.218-.63l4.333-1.5z" fill="#F33"/>
    <path d="m6.834 10-4.5-1.5 1.333-1.666 4.334 1.5-1.167 1.667z" fill="#F33"/>
    <path fill-rule="evenodd" clip-rule="evenodd" d="M3.407 6.625a.333.333 0 0 1 .369-.107l4.333 1.5a.333.333 0 0 1 .164.506l-1.167 1.667a.333.333 0 0 1-.378.125l-4.5-1.5a.333.333 0 0 1-.155-.524l1.333-1.667zm.373.6-.888 1.11 3.811 1.27.77-1.101L3.78 7.225z" fill="#F33"/>
    <path d="m9.167 10 4.5-1.5-1.334-1.666L8 8.334l1.167 1.667z" fill="#F33"/>
    <path fill-rule="evenodd" clip-rule="evenodd" d="M12.594 6.625a.333.333 0 0 0-.37-.107l-4.333 1.5a.333.333 0 0 0-.164.506l1.167 1.667a.333.333 0 0 0 .378.125l4.5-1.5a.333.333 0 0 0 .155-.524l-1.333-1.667zm-.374.6.888 1.11-3.81 1.27-.771-1.101 3.693-1.279z" fill="#F33"/>
</svg>
