<svg width="24" height="24" viewBox="0 0 24 24" fill="none" xmlns="http://www.w3.org/2000/svg">
    <path d="M14.946 3.75a7.514 7.514 0 0 1 5.304 5.305M14.17 6.648a4.508 4.508 0 0 1 3.182 3.183M8.67 11.701a7.908 7.908 0 0 0 3.66 3.645.743.743 0 0 0 .735-.056l2.347-1.565a.75.75 0 0 1 .711-.065l4.391 1.882a.748.748 0 0 1 .45.778 4.5 4.5 0 0 1-4.464 3.93A12.75 12.75 0 0 1 3.75 7.5a4.5 4.5 0 0 1 3.93-4.464.747.747 0 0 1 .778.45l1.884 4.394a.751.751 0 0 1-.062.706L8.72 10.97a.743.743 0 0 0-.05.731v0z" stroke="#000" stroke-linecap="round" stroke-linejoin="round"/>
</svg>
