<svg width="24" height="24" viewBox="0 0 24 24" fill="none" xmlns="http://www.w3.org/2000/svg">
    <path d="M16.367 5.859v.004a4.085 4.085 0 0 1-4.105 4.086h-.003c-2.276 0-4.093-1.825-4.093-4.126.004-2.258 1.831-4.076 4.12-4.073a4.084 4.084 0 0 1 2.894 1.206l.532-.528-.532.528a4.085 4.085 0 0 1 1.187 2.903z" fill="#fff" stroke="#000" stroke-width="1.5"/>
    <mask id="5j56k0fera" fill="#fff">
        <path d="M2 21a9 9 0 0 1 9-9h2a9 9 0 0 1 9 9 1 1 0 0 1-1 1H3a1 1 0 0 1-1-1z"/>
    </mask>
    <path d="M2 21a9 9 0 0 1 9-9h2a9 9 0 0 1 9 9 1 1 0 0 1-1 1H3a1 1 0 0 1-1-1z" fill="#fff" stroke="#000" stroke-width="3" stroke-linejoin="round" mask="url(#5j56k0fera)"/>
    <mask id="ivpr914uhb" fill="#fff">
        <path d="M12.075 22.996H9.226c-.59 0-1.003-.392-1.003-.952v-3.192c0-.124 0-.124-.134-.124-.116 0-.233.002-.35 0a.334.334 0 0 1-.226-.09.301.301 0 0 1-.092-.215c0-.46-.014-.921.005-1.381.018-.402.184-.784.468-1.082.295-.32.598-.633.901-.947a.818.818 0 0 1 .285-.198.857.857 0 0 1 .347-.065c1.765.003 3.53.003 5.296 0a.841.841 0 0 1 .37.075c.114.053.214.13.291.227.258.304.519.607.772.914.278.327.429.736.427 1.156v1.267c0 .222-.127.34-.361.341a1.386 1.386 0 0 1-.16 0c-.1-.011-.124.03-.124.119.003 1.08.003 2.16 0 3.24 0 .333-.159.59-.452.77a.955.955 0 0 1-.513.14c-.965-.002-1.931-.003-2.898-.003zm.013-4.268h-3.09c-.087 0-.122.017-.122.11.003 1.06 0 2.12.002 3.18 0 .234.126.355.369.356.314 0 .629-.003.942.002.092 0 .12-.024.12-.112a65.043 65.043 0 0 1 0-1.296c.004-.633.579-1.18 1.244-1.184.34-.003.682-.002 1.024 0 .338 0 .662.128.902.355.239.227.374.535.375.857 0 .422.002.844 0 1.266 0 .086.022.117.117.115.307-.006.614 0 .923-.002.272 0 .392-.114.392-.373 0-1.05 0-2.1.002-3.153 0-.098-.03-.122-.13-.121-1.025.002-2.048.001-3.07.001v-.001zm-.005-.623h1.173c.078 0 .105-.02.104-.097-.003-.327 0-.653-.003-.98a1.192 1.192 0 0 0-.18-.636c-.197-.311-.396-.618-.59-.929a.144.144 0 0 0-.06-.06.156.156 0 0 0-.086-.018 27.21 27.21 0 0 1-.712 0 .17.17 0 0 0-.094.02.159.159 0 0 0-.067.067 68.01 68.01 0 0 1-.57.907c-.127.2-.193.428-.192.66-.005.321 0 .642-.003.962 0 .078.023.105.107.104l1.173.001zm-2.97 0c.307 0 .613-.003.922 0 .086 0 .117-.02.115-.106-.005-.33 0-.662-.002-.99a1.71 1.71 0 0 1 .274-.942l.371-.589c.057-.088.056-.09-.051-.09H9.458a.258.258 0 0 0-.201.083c-.272.29-.548.574-.82.862a1.221 1.221 0 0 0-.348.763c-.025.311-.005.622-.013.933 0 .069.036.078.094.078.314-.002.628-.001.942-.001zm5.852 0c.284 0 .568-.002.852 0 .08 0 .113-.018.112-.1-.005-.276 0-.552-.003-.829-.004-.282-.075-.548-.26-.775-.258-.316-.525-.625-.788-.938a.236.236 0 0 0-.088-.068.25.25 0 0 0-.111-.022c-.424 0-.85.002-1.273 0-.09 0-.084.027-.046.086.126.194.249.39.372.587.184.282.282.607.283.94-.002.339 0 .678-.002 1.018 0 .08.028.103.11.102.28-.002.56 0 .842 0zm-2.89 4.269h1.012c.079 0 .113-.016.113-.1-.004-.41 0-.82-.003-1.229-.003-.385-.27-.637-.677-.64-.29-.003-.582-.003-.873 0-.412.003-.679.254-.681.645-.003.407 0 .813-.003 1.22 0 .078.023.105.108.104h1.003z"/>
    </mask>
    <path d="M12.075 22.996H9.226c-.59 0-1.003-.392-1.003-.952v-3.192c0-.124 0-.124-.134-.124-.116 0-.233.002-.35 0a.334.334 0 0 1-.226-.09.301.301 0 0 1-.092-.215c0-.46-.014-.921.005-1.381.018-.402.184-.784.468-1.082.295-.32.598-.633.901-.947a.818.818 0 0 1 .285-.198.857.857 0 0 1 .347-.065c1.765.003 3.53.003 5.296 0a.841.841 0 0 1 .37.075c.114.053.214.13.291.227.258.304.519.607.772.914.278.327.429.736.427 1.156v1.267c0 .222-.127.34-.361.341a1.386 1.386 0 0 1-.16 0c-.1-.011-.124.03-.124.119.003 1.08.003 2.16 0 3.24 0 .333-.159.59-.452.77a.955.955 0 0 1-.513.14c-.965-.002-1.931-.003-2.898-.003zm.013-4.268h-3.09c-.087 0-.122.017-.122.11.003 1.06 0 2.12.002 3.18 0 .234.126.355.369.356.314 0 .629-.003.942.002.092 0 .12-.024.12-.112a65.043 65.043 0 0 1 0-1.296c.004-.633.579-1.18 1.244-1.184.34-.003.682-.002 1.024 0 .338 0 .662.128.902.355.239.227.374.535.375.857 0 .422.002.844 0 1.266 0 .086.022.117.117.115.307-.006.614 0 .923-.002.272 0 .392-.114.392-.373 0-1.05 0-2.1.002-3.153 0-.098-.03-.122-.13-.121-1.025.002-2.048.001-3.07.001v-.001zm-.005-.623h1.173c.078 0 .105-.02.104-.097-.003-.327 0-.653-.003-.98a1.192 1.192 0 0 0-.18-.636c-.197-.311-.396-.618-.59-.929a.144.144 0 0 0-.06-.06.156.156 0 0 0-.086-.018 27.21 27.21 0 0 1-.712 0 .17.17 0 0 0-.094.02.159.159 0 0 0-.067.067 68.01 68.01 0 0 1-.57.907c-.127.2-.193.428-.192.66-.005.321 0 .642-.003.962 0 .078.023.105.107.104l1.173.001zm-2.97 0c.307 0 .613-.003.922 0 .086 0 .117-.02.115-.106-.005-.33 0-.662-.002-.99a1.71 1.71 0 0 1 .274-.942l.371-.589c.057-.088.056-.09-.051-.09H9.458a.258.258 0 0 0-.201.083c-.272.29-.548.574-.82.862a1.221 1.221 0 0 0-.348.763c-.025.311-.005.622-.013.933 0 .069.036.078.094.078.314-.002.628-.001.942-.001zm5.852 0c.284 0 .568-.002.852 0 .08 0 .113-.018.112-.1-.005-.276 0-.552-.003-.829-.004-.282-.075-.548-.26-.775-.258-.316-.525-.625-.788-.938a.236.236 0 0 0-.088-.068.25.25 0 0 0-.111-.022c-.424 0-.85.002-1.273 0-.09 0-.084.027-.046.086.126.194.249.39.372.587.184.282.282.607.283.94-.002.339 0 .678-.002 1.018 0 .08.028.103.11.102.28-.002.56 0 .842 0zm-2.89 4.269h1.012c.079 0 .113-.016.113-.1-.004-.41 0-.82-.003-1.229-.003-.385-.27-.637-.677-.64-.29-.003-.582-.003-.873 0-.412.003-.679.254-.681.645-.003.407 0 .813-.003 1.22 0 .078.023.105.108.104h1.003z" fill="#000" stroke="#000" stroke-width="2" mask="url(#ivpr914uhb)"/>
    <path d="M12.075 22.377h1.013c.078 0 .113-.016.112-.1-.003-.41 0-.82-.002-1.229-.004-.385-.27-.636-.677-.64-.291-.003-.582-.003-.873 0-.412.003-.68.255-.681.645-.003.407 0 .813-.003 1.22 0 .078.023.105.108.104h1.003z" fill="#FF7C97"/>
    <path d="M12.088 18.73h-3.09c-.087 0-.122.017-.122.11.003 1.06 0 2.12.003 3.181 0 .233.126.354.368.355.314 0 .629-.003.942.002.092 0 .12-.024.12-.112a65.033 65.033 0 0 1 0-1.296c.004-.633.579-1.18 1.244-1.184.34-.003.682-.002 1.024 0 .338 0 .663.128.902.355.24.227.374.535.375.857 0 .422.002.844 0 1.267 0 .085.023.116.117.114.308-.006.614 0 .923-.002.272 0 .392-.114.392-.373 0-1.05 0-2.1.002-3.152 0-.099-.03-.123-.13-.122-1.024.003-2.047.001-3.07.001v-.001zm-.005-.623h1.173c.078 0 .105-.02.104-.097-.003-.327 0-.653-.002-.98a1.193 1.193 0 0 0-.181-.636c-.197-.31-.395-.618-.59-.929a.144.144 0 0 0-.06-.06.155.155 0 0 0-.086-.017c-.237.002-.474.003-.712 0a.17.17 0 0 0-.094.02.159.159 0 0 0-.066.066 68 68 0 0 1-.571.907c-.127.2-.193.428-.192.661-.005.32 0 .641-.003.961 0 .078.023.105.108.104h1.172zm-2.97 0c.307 0 .614-.002.922 0 .086 0 .117-.02.116-.106-.005-.33 0-.662-.003-.99a1.71 1.71 0 0 1 .275-.942l.37-.588c.057-.09.056-.09-.05-.09H9.457a.257.257 0 0 0-.201.083c-.272.288-.548.573-.82.862a1.221 1.221 0 0 0-.348.762c-.024.311-.004.622-.013.934 0 .068.036.077.094.077.314-.002.628-.002.942-.002zm5.852 0c.284 0 .568-.002.852 0 .08 0 .113-.017.112-.1-.005-.276 0-.552-.003-.829-.004-.282-.075-.548-.26-.775-.258-.316-.525-.625-.787-.938a.236.236 0 0 0-.088-.068.25.25 0 0 0-.112-.022c-.424 0-.849.002-1.273 0-.09 0-.084.027-.046.086.126.194.249.391.372.587.184.282.283.608.283.94-.002.34 0 .679-.002 1.018 0 .08.028.103.11.103.281-.003.561-.002.842-.002zm-2.89 4.269h1.012c.079 0 .114-.016.113-.1-.004-.409 0-.819-.003-1.229-.003-.385-.27-.636-.677-.64-.29-.003-.581-.003-.872 0-.412.003-.68.255-.682.645-.003.407 0 .813-.002 1.22 0 .078.023.105.107.104h1.003z" fill="#FF7C97"/>
    <path d="M12.074 22.373h1.013c.078 0 .113-.015.112-.099-.004-.41 0-.82-.002-1.229-.004-.385-.271-.637-.677-.64a52.89 52.89 0 0 0-.873 0c-.412.003-.68.254-.682.645-.002.407 0 .813-.002 1.22 0 .077.023.105.108.104h1.003z" fill="#fff"/>
    <path d="M12.087 18.727h-3.09c-.087 0-.122.017-.122.11.003 1.06 0 2.12.002 3.18 0 .234.127.355.37.356.313 0 .628-.003.941.002.092 0 .12-.024.12-.113a65.043 65.043 0 0 1 0-1.295c.004-.633.579-1.18 1.244-1.184.34-.003.682-.002 1.024 0 .338 0 .662.128.902.355.24.227.374.535.375.856 0 .422.002.845 0 1.267 0 .086.023.117.117.115.308-.006.614 0 .923-.002.272 0 .392-.114.392-.373 0-1.05 0-2.1.002-3.153 0-.098-.03-.122-.13-.121-1.024.002-2.047.001-3.07.001v-.001zm-.014 3.646h1.013c.079 0 .114-.016.113-.1-.004-.41 0-.82-.003-1.229-.003-.385-.27-.637-.677-.64-.29-.003-.581-.003-.872 0-.412.003-.68.254-.682.645-.003.407 0 .813-.002 1.22 0 .078.023.105.107.104h1.003z" fill="#fff"/>
    <path d="M12.076 22.374h1.013c.079 0 .113-.015.112-.1-.003-.409 0-.819-.002-1.228-.004-.386-.27-.637-.677-.64-.29-.003-.582-.003-.873 0-.412.002-.679.254-.681.645-.003.406 0 .813-.003 1.22 0 .077.023.105.108.104h1.003z" fill="#fff"/>
    <path d="M12.076 22.373h1.012c.08 0 .114-.015.113-.099-.004-.41 0-.82-.002-1.23-.004-.385-.271-.636-.677-.64-.291-.002-.582-.002-.873 0-.412.003-.68.255-.682.646-.003.406 0 .813-.002 1.22 0 .077.023.105.108.104h1.003z" fill="#fff"/>
</svg>
