<svg width="24" height="24" viewBox="0 0 24 24" fill="none" xmlns="http://www.w3.org/2000/svg">
    <path fill-rule="evenodd" clip-rule="evenodd" d="M20.903 10.954c0 5.498-4.457 9.955-9.954 9.955-5.498 0-9.955-4.457-9.955-9.954C.994 5.456 5.451 1 10.95 1c5.497 0 9.954 4.457 9.954 9.954zm-1.3 0a8.655 8.655 0 1 1-17.309 0 8.655 8.655 0 0 1 17.31 0z" fill="#000"/>
    <path d="M17.765 12.545a5.238 5.238 0 0 1 5.227 5.228A5.238 5.238 0 0 1 17.765 23a5.238 5.238 0 0 1-5.227-5.227 5.238 5.238 0 0 1 5.227-5.228z" fill="#FFEA91"/>
    <path d="M17.763 12.505a5.238 5.238 0 0 1 5.227 5.228 5.238 5.238 0 0 1-5.227 5.227 5.238 5.238 0 0 1-5.227-5.227 5.238 5.238 0 0 1 5.227-5.228zm0 1.394a3.823 3.823 0 0 0-3.834 3.834 3.823 3.823 0 0 0 3.834 3.833 3.823 3.823 0 0 0 3.833-3.833 3.823 3.823 0 0 0-3.833-3.834z" fill="#000"/>
    <path d="m15.893 17.19-.266-.265a.375.375 0 0 0 0 .53l.265-.265zm1.26 1.932a.375.375 0 0 0 0 .75v-.75zm-.372-.514a.375.375 0 1 0 .53-.53l-.53.53zm.53-2.306a.375.375 0 0 0-.53-.53l.53.53zm-1.418 1.263h2.414v-.75h-2.414v.75zm2.414 1.557h-1.153v.75h1.153v-.75zm.779-.779c0 .43-.349.779-.779.779v.75c.844 0 1.529-.685 1.529-1.529h-.75zm-.779-.778c.43 0 .779.348.779.778h.75c0-.844-.685-1.528-1.529-1.528v.75zm-.996.513-1.153-1.153-.53.53 1.153 1.154.53-.53zm-1.153-.623 1.153-1.153-.53-.53-1.154 1.153.53.53z" fill="#000"/>
    <path d="M7.314 6.665h6.273" stroke="#000" stroke-width="1.5" stroke-linecap="round" stroke-linejoin="round"/>
    <path d="M7.315 7.875a.75.75 0 1 0 0 1.5v-1.5zm6.272 1.5a.75.75 0 1 0 0-1.5v1.5zM9.08 5.915a.75.75 0 1 0 0 1.5v-1.5zm2.548 3.298h-.75.75zM7.314 11.76v-.75a.75.75 0 0 0-.504 1.305l.504-.555zm3.808 4.476a.75.75 0 0 0 1.01-1.11l-1.01 1.11zM7.315 9.375h6.272v-1.5H7.315v1.5zm1.764-1.96c.477 0 .934.189 1.271.526l1.06-1.06a3.298 3.298 0 0 0-2.331-.966v1.5zm1.271.526c.338.338.527.795.527 1.272h1.5c0-.875-.348-1.714-.966-2.332l-1.06 1.06zm.527 1.272c0 .477-.19.934-.527 1.271l1.06 1.061a3.298 3.298 0 0 0 .967-2.332h-1.5zm-.527 1.271a1.798 1.798 0 0 1-1.271.527v1.5c.874 0 1.713-.347 2.332-.966l-1.06-1.06zm-1.271.527H7.314v1.5H9.08v-1.5zm-2.27 1.305 4.313 3.92 1.01-1.11-4.313-3.92-1.01 1.11z" fill="#000"/>
</svg>
