<svg width="32" height="32" viewBox="0 0 32 32" fill="none" xmlns="http://www.w3.org/2000/svg">
    <path d="M2.304 24.16a.987.987 0 0 1-.981-1.095l1.811-16.53c.055-.5.478-.88.981-.88H18.42c.503 0 .926.38.98.88l1.812 16.53a.987.987 0 0 1-.98 1.094H2.303z" fill="#6FA5EF"/>
    <path d="M20.231 24.16a.987.987 0 0 0 .981-1.095l-1.811-16.53a.987.987 0 0 0-.981-.88H4.115a.987.987 0 0 0-.98.88l-1.812 16.53a.987.987 0 0 0 .981 1.094h17.927z" fill="#FF3278"/>
    <path d="M16.325 9.26a.397.397 0 0 1-.397-.396V6.847a4.726 4.726 0 0 0-4.72-4.72 4.726 4.726 0 0 0-4.721 4.72v2.017a.397.397 0 0 1-.794 0V6.847a5.52 5.52 0 0 1 5.514-5.514 5.52 5.52 0 0 1 5.514 5.514v2.017c0 .219-.177.396-.396.396z" fill="#9D1040"/>
    <path d="M6.09 10.937c-.712 0-1.29-.58-1.29-1.29 0-.712.578-1.291 1.29-1.291.711 0 1.29.579 1.29 1.29 0 .712-.579 1.29-1.29 1.29zm0-1.788a.498.498 0 1 0 0 .996.498.498 0 0 0 0-.996zM16.326 10.937c-.712 0-1.29-.58-1.29-1.29 0-.712.578-1.291 1.29-1.291.711 0 1.29.579 1.29 1.29 0 .712-.579 1.29-1.29 1.29zm0-1.788a.498.498 0 1 0 0 .996.498.498 0 0 0 0-.996z" fill="#9D1040"/>
    <path d="m21.102 29.392-2.997 1.077-1.792-2.633-3.058-.89.098-3.184-1.95-2.518 1.95-2.518-.098-3.183 3.058-.89 1.792-2.634 2.997 1.077 2.997-1.077 1.792 2.633 3.058.89-.098 3.184 1.95 2.518-1.95 2.518.098 3.183-3.058.89L24.1 30.47l-2.997-1.077z" fill="#FE8821" stroke="#fff" stroke-width=".714"/>
    <path d="M20.641 19.526c0 .273-.046.52-.14.739-.09.22-.211.408-.364.564a1.657 1.657 0 0 1-1.169.48c-.24 0-.461-.042-.664-.125a1.56 1.56 0 0 1-.53-.355 1.691 1.691 0 0 1-.344-.564 2.072 2.072 0 0 1-.125-.74c0-.279.041-.532.125-.758.083-.227.198-.418.344-.575.15-.156.326-.276.53-.36.203-.086.424-.13.664-.13.24 0 .461.044.664.13.207.084.385.204.535.36.15.157.266.348.35.575.083.226.124.48.124.759zm-.954 0c0-.193-.018-.355-.055-.485a.842.842 0 0 0-.155-.314.52.52 0 0 0-.23-.17.71.71 0 0 0-.279-.055.71.71 0 0 0-.28.055.526.526 0 0 0-.224.17.892.892 0 0 0-.15.314c-.034.13-.05.292-.05.485 0 .186.016.343.05.47a.842.842 0 0 0 .15.299.54.54 0 0 0 .224.165c.087.033.18.05.28.05.1 0 .193-.017.28-.05a.535.535 0 0 0 .23-.165.796.796 0 0 0 .154-.3 1.71 1.71 0 0 0 .055-.47zm3.357-1.554c.04-.05.09-.095.15-.135.06-.04.143-.06.25-.06h.894l-5.365 7.038a.51.51 0 0 1-.155.135.447.447 0 0 1-.22.05h-.919l5.365-7.028zm1.673 5.33c0 .273-.046.52-.14.74-.09.219-.211.407-.364.564a1.68 1.68 0 0 1-.535.36 1.737 1.737 0 0 1-1.299 0 1.622 1.622 0 0 1-.529-.36 1.692 1.692 0 0 1-.345-.565 2.075 2.075 0 0 1-.124-.739c0-.28.041-.533.124-.76.084-.226.199-.417.345-.574.15-.156.326-.276.53-.36.203-.086.424-.13.664-.13.24 0 .461.044.664.13.207.084.385.204.535.36.15.157.266.348.35.575.083.226.124.48.124.759zm-.949 0c0-.193-.02-.355-.06-.485a.842.842 0 0 0-.155-.314.52.52 0 0 0-.23-.17.71.71 0 0 0-.28-.055.71.71 0 0 0-.279.055.526.526 0 0 0-.225.17.953.953 0 0 0-.145.314c-.036.13-.054.292-.054.485 0 .186.018.343.055.47a.896.896 0 0 0 .144.304.54.54 0 0 0 .225.165c.087.033.18.05.28.05.1 0 .193-.017.28-.05a.535.535 0 0 0 .23-.165.795.795 0 0 0 .154-.305c.04-.126.06-.283.06-.469z" fill="#fff"/>
</svg>
