<svg width="24" height="24" viewBox="0 0 24 24" fill="none" xmlns="http://www.w3.org/2000/svg">
    <path fill-rule="evenodd" clip-rule="evenodd" d="M14.669 3.267v5.7c0 .471-.496.777-.917.567l-2.25-1.125-2.25 1.125a.633.633 0 0 1-.917-.567v-5.7l-5.066.001s0 16.466-.003 16.466h11.086a.633.633 0 0 1 0 1.267H3.266a1.266 1.266 0 0 1-1.264-1.267V3.268c0-.7.567-1.267 1.267-1.267h16.466c.7 0 1.267.565 1.267 1.264v11.086a.633.633 0 0 1-1.267 0V3.268h-5.066zM9.602 7.943l1.617-.808a.633.633 0 0 1 .566 0l1.617.808V3.267h-3.8v4.676z" fill="#000"/>
    <path d="M18.035 13.033A4.975 4.975 0 0 1 23 17.997a4.975 4.975 0 0 1-4.965 4.965 4.975 4.975 0 0 1-4.964-4.965 4.975 4.975 0 0 1 4.964-4.964zm0 1.324a3.63 3.63 0 0 0-3.64 3.64 3.63 3.63 0 0 0 3.64 3.64 3.63 3.63 0 0 0 3.641-3.64 3.63 3.63 0 0 0-3.64-3.64z" fill="#000"/>
    <path d="m16.28 17.444-.266-.266a.375.375 0 0 0 0 .53l.265-.264zm1.206 1.831a.375.375 0 0 0 0 .75v-.75zm-.369-.463a.375.375 0 1 0 .53-.53l-.53.53zm.53-2.207a.375.375 0 0 0-.53-.53l.53.53zm-1.368 1.213h2.31v-.75h-2.31v.75zm2.31 1.457h-1.103v.75h1.103v-.75zm.728-.728a.728.728 0 0 1-.728.728v.75c.816 0 1.478-.662 1.478-1.478h-.75zm-.728-.729c.402 0 .728.327.728.729h.75c0-.817-.662-1.479-1.478-1.479v.75zm-.941.464-1.104-1.104-.53.53 1.103 1.104.53-.53zm-1.104-.573 1.104-1.104-.53-.53-1.104 1.103.53.53z" fill="#000"/>
</svg>
