<svg width="16" height="16" viewBox="0 0 16 16" fill="none" xmlns="http://www.w3.org/2000/svg">
    <circle cx="8" cy="8" r="8" fill="#FA0"/>
    <path d="M8.2 6.451a1.5 1.5 0 0 0-.627-.916c-.316-.218-.75-.327-1.302-.327H5.006V4H11v1.16H8.762a1.8 1.8 0 0 1 .563.57c.134.217.227.457.278.721H11v1.167H9.59a2.666 2.666 0 0 1-.613 1.222c-.312.352-.72.616-1.227.792.224.12.411.306.563.556L10.773 14H9.444a.593.593 0 0 1-.563-.333l-2.13-3.368a.735.735 0 0 0-.235-.25c-.084-.051-.21-.077-.379-.077H5.006v-1.11h1.227c.531 0 .957-.114 1.277-.341.325-.232.542-.533.651-.903H5V6.451h3.2z" fill="#fff"/>
</svg>
